<svg xmlns="http://www.w3.org/2000/svg" viewBox="0 0 1366 1024" width="1366" height="1024" xmlns:c2pa="http://c2pa.org/manifest">
<defs>
<filter id="edge" x="-60%" y="-60%" width="220%" height="220%"><feGaussianBlur stdDeviation="34"></feGaussianBlur></filter>
<filter id="tail" x="-110%" y="-110%" width="320%" height="320%"><feGaussianBlur stdDeviation="95"></feGaussianBlur></filter>
<filter id="tail2" x="-170%" y="-170%" width="440%" height="440%"><feGaussianBlur stdDeviation="190"></feGaussianBlur></filter>
<mask id="outside">
<rect x="-900" y="-900" width="3200" height="2900" fill="#fff"></rect>
<g filter="url(#edge)" fill="#000" stroke="#000" stroke-width="34" stroke-linejoin="round"><path d="M683.571 276.798L683.196 276.15L465.076 654.147L464.701 654.795H598.377L608.752 654.642L613.794 645.506C614.05 645.045 614.305 644.569 614.629 644.023L622.738 629.978C618.224 639.165 615.855 649.324 615.855 659.653C615.855 696.805 646.059 727.027 683.196 727.027C720.332 727.027 750.537 696.805 750.537 659.653C750.537 649.376 748.169 639.216 743.672 630.012L752.155 644.705L757.691 654.778H901.674L683.554 276.781L683.571 276.798Z"></path><path d="M683.62 237.442L683.195 236.709L432.179 671.724L431.754 672.454H585.6L597.54 672.284L603.35 661.765C603.64 661.221 603.946 660.692 604.304 660.061L613.622 643.903C608.443 654.471 605.7 666.181 605.7 678.058C605.7 720.802 640.47 755.595 683.195 755.595C725.92 755.595 760.688 720.802 760.688 678.058C760.688 666.23 757.962 654.539 752.783 643.937L762.545 660.845L768.916 672.43H934.618L683.603 237.425L683.62 237.442Z"></path><path d="M683.672 198.103L683.196 197.268L399.286 689.292L398.808 690.131H572.807L586.316 689.936L592.875 678.059C593.215 677.451 593.555 676.831 593.965 676.138L604.51 657.847C598.649 669.816 595.549 683.043 595.549 696.464C595.549 744.825 634.866 784.165 683.196 784.165C731.525 784.165 770.86 744.825 770.86 696.464C770.86 683.092 767.776 669.865 761.933 657.881L772.971 677.001L780.195 690.106H967.618L683.706 198.086L683.672 198.103Z"></path><path d="M683.724 158.746L683.196 157.825L366.373 706.87L365.829 707.782H559.997L575.073 707.576L582.398 694.324C582.772 693.644 583.148 692.963 583.607 692.173L595.379 671.773C588.838 685.122 585.379 699.88 585.379 714.882C585.379 768.834 629.262 812.733 683.196 812.733C737.13 812.733 781.012 768.822 781.012 714.882C781.012 699.941 777.572 685.182 771.047 671.822L783.363 693.157L791.421 707.782H1000.56L683.741 158.746H683.724Z"></path><path d="M683.791 119.392L683.195 118.368L333.477 724.426L332.88 725.447H547.202L563.828 725.204L571.92 710.567C572.329 709.813 572.755 709.059 573.248 708.196L586.247 685.681C579.024 700.404 575.208 716.706 575.208 733.264C575.208 792.833 623.64 841.303 683.178 841.303C742.716 841.303 791.148 792.833 791.148 733.264C791.148 716.791 787.366 700.489 780.143 685.742L793.737 709.302L802.629 725.447H1033.49L683.774 119.392H683.791Z"></path><path d="M683.843 80.0513L683.196 78.9268L300.583 741.992L299.936 743.122H534.427L552.62 742.867L561.462 726.844C561.922 726.018 562.364 725.191 562.927 724.255L577.134 699.625C569.23 715.733 565.073 733.555 565.073 751.681C565.073 816.842 618.071 869.858 683.196 869.858C748.322 869.858 801.32 816.854 801.32 751.681C801.32 733.64 797.179 715.818 789.276 699.673L804.147 725.446L813.874 743.122H1066.44L683.826 80.0513H683.843Z"></path><path d="M683.894 40.696L683.196 39.4864L267.688 759.547L266.99 760.763H521.633L541.395 760.483L551.002 743.098C551.496 742.211 551.991 741.311 552.586 740.29L568.021 713.533C559.434 731.039 554.904 750.393 554.904 770.063C554.904 840.84 612.449 898.416 683.179 898.416C753.909 898.416 811.455 840.84 811.455 770.063C811.455 750.478 806.958 731.124 798.389 713.594L814.538 741.591L825.1 760.775H1099.39L683.877 40.713L683.894 40.696Z"></path><path d="M683.944 1.35698L683.178 0.044005L234.775 777.125L234.008 778.438H508.822L530.15 778.134L540.524 759.364C541.053 758.404 541.581 757.431 542.228 756.325L558.889 727.452C549.622 746.344 544.749 767.242 544.749 788.48C544.749 864.85 606.86 926.984 683.178 926.984C759.496 926.984 821.607 864.85 821.607 788.48C821.607 767.339 816.752 746.465 807.502 727.537L824.929 757.747L836.325 778.45H1132.33L683.927 1.37397L683.944 1.35698Z"></path><path d="M684.013 -37.998L683.194 -39.413L201.896 794.681L201.079 796.091H496.044L518.94 795.775L530.08 775.619C530.643 774.597 531.222 773.54 531.921 772.373L549.808 741.385C539.86 761.662 534.63 784.08 534.63 806.862C534.63 888.848 601.288 955.529 683.228 955.529C765.169 955.529 831.827 888.836 831.827 806.862C831.827 784.177 826.614 761.772 816.683 741.446L835.388 773.868L847.619 796.091H1165.35L684.047 -37.998H684.013Z"></path><path d="M684.065 -77.3533L683.196 -78.8535L169.003 812.248L168.133 813.755H483.27L507.732 813.415L519.623 791.885C520.236 790.779 520.85 789.672 521.582 788.408L540.678 755.305C530.049 776.968 524.461 800.917 524.461 825.28C524.461 912.846 595.669 984.098 683.213 984.098C770.758 984.098 841.966 912.846 841.966 825.28C841.966 801.039 836.395 777.09 825.799 755.39L845.78 790.025L858.847 813.767H1198.3L684.099 -77.3363L684.065 -77.3533Z"></path><path d="M684.116 -116.693L683.196 -118.295L136.107 829.826L135.188 831.431H470.476L496.49 831.054L509.146 808.15C509.793 806.971 510.441 805.792 511.224 804.442L531.548 769.236C520.236 792.273 514.291 817.754 514.291 843.661C514.291 936.844 590.064 1012.67 683.196 1012.67C776.328 1012.67 852.101 936.844 852.101 843.661C852.101 817.876 846.173 792.395 834.895 769.321L856.155 806.169L870.056 831.431H1231.2L684.099 -116.693H684.116Z"></path><path d="M684.185 -156.048L683.196 -157.753L103.195 847.368L102.207 849.07H457.666L485.246 848.681L498.652 824.392C499.334 823.14 500.032 821.9 500.868 820.465L522.417 783.119C510.424 807.542 504.121 834.579 504.121 862.042C504.121 960.829 584.443 1041.2 683.179 1041.2C781.916 1041.2 862.238 960.829 862.238 862.042C862.238 834.701 855.951 807.688 843.992 783.204L866.53 822.276L881.266 849.046H1264.14L684.134 -156.065L684.185 -156.048Z"></path><path d="M684.236 -195.386L683.196 -197.176L70.3002 864.96L69.2608 866.747H444.872L474.02 866.334L488.192 840.683C488.908 839.37 489.659 838.045 490.527 836.537L513.303 797.088C500.646 822.909 493.968 851.454 493.968 880.485C493.968 984.864 578.855 1069.79 683.179 1069.79C787.503 1069.79 872.39 984.864 872.39 880.485C872.39 851.587 865.746 823.043 853.106 797.185L876.921 838.47L892.509 866.759H1297.1L684.202 -195.369L684.236 -195.386Z"></path></g>
<g filter="url(#tail)" fill="#000" stroke="#000" stroke-width="34" stroke-linejoin="round" opacity=".85"><path d="M683.571 276.798L683.196 276.15L465.076 654.147L464.701 654.795H598.377L608.752 654.642L613.794 645.506C614.05 645.045 614.305 644.569 614.629 644.023L622.738 629.978C618.224 639.165 615.855 649.324 615.855 659.653C615.855 696.805 646.059 727.027 683.196 727.027C720.332 727.027 750.537 696.805 750.537 659.653C750.537 649.376 748.169 639.216 743.672 630.012L752.155 644.705L757.691 654.778H901.674L683.554 276.781L683.571 276.798Z"></path><path d="M683.62 237.442L683.195 236.709L432.179 671.724L431.754 672.454H585.6L597.54 672.284L603.35 661.765C603.64 661.221 603.946 660.692 604.304 660.061L613.622 643.903C608.443 654.471 605.7 666.181 605.7 678.058C605.7 720.802 640.47 755.595 683.195 755.595C725.92 755.595 760.688 720.802 760.688 678.058C760.688 666.23 757.962 654.539 752.783 643.937L762.545 660.845L768.916 672.43H934.618L683.603 237.425L683.62 237.442Z"></path><path d="M683.672 198.103L683.196 197.268L399.286 689.292L398.808 690.131H572.807L586.316 689.936L592.875 678.059C593.215 677.451 593.555 676.831 593.965 676.138L604.51 657.847C598.649 669.816 595.549 683.043 595.549 696.464C595.549 744.825 634.866 784.165 683.196 784.165C731.525 784.165 770.86 744.825 770.86 696.464C770.86 683.092 767.776 669.865 761.933 657.881L772.971 677.001L780.195 690.106H967.618L683.706 198.086L683.672 198.103Z"></path><path d="M683.724 158.746L683.196 157.825L366.373 706.87L365.829 707.782H559.997L575.073 707.576L582.398 694.324C582.772 693.644 583.148 692.963 583.607 692.173L595.379 671.773C588.838 685.122 585.379 699.88 585.379 714.882C585.379 768.834 629.262 812.733 683.196 812.733C737.13 812.733 781.012 768.822 781.012 714.882C781.012 699.941 777.572 685.182 771.047 671.822L783.363 693.157L791.421 707.782H1000.56L683.741 158.746H683.724Z"></path><path d="M683.791 119.392L683.195 118.368L333.477 724.426L332.88 725.447H547.202L563.828 725.204L571.92 710.567C572.329 709.813 572.755 709.059 573.248 708.196L586.247 685.681C579.024 700.404 575.208 716.706 575.208 733.264C575.208 792.833 623.64 841.303 683.178 841.303C742.716 841.303 791.148 792.833 791.148 733.264C791.148 716.791 787.366 700.489 780.143 685.742L793.737 709.302L802.629 725.447H1033.49L683.774 119.392H683.791Z"></path><path d="M683.843 80.0513L683.196 78.9268L300.583 741.992L299.936 743.122H534.427L552.62 742.867L561.462 726.844C561.922 726.018 562.364 725.191 562.927 724.255L577.134 699.625C569.23 715.733 565.073 733.555 565.073 751.681C565.073 816.842 618.071 869.858 683.196 869.858C748.322 869.858 801.32 816.854 801.32 751.681C801.32 733.64 797.179 715.818 789.276 699.673L804.147 725.446L813.874 743.122H1066.44L683.826 80.0513H683.843Z"></path><path d="M683.894 40.696L683.196 39.4864L267.688 759.547L266.99 760.763H521.633L541.395 760.483L551.002 743.098C551.496 742.211 551.991 741.311 552.586 740.29L568.021 713.533C559.434 731.039 554.904 750.393 554.904 770.063C554.904 840.84 612.449 898.416 683.179 898.416C753.909 898.416 811.455 840.84 811.455 770.063C811.455 750.478 806.958 731.124 798.389 713.594L814.538 741.591L825.1 760.775H1099.39L683.877 40.713L683.894 40.696Z"></path><path d="M683.944 1.35698L683.178 0.044005L234.775 777.125L234.008 778.438H508.822L530.15 778.134L540.524 759.364C541.053 758.404 541.581 757.431 542.228 756.325L558.889 727.452C549.622 746.344 544.749 767.242 544.749 788.48C544.749 864.85 606.86 926.984 683.178 926.984C759.496 926.984 821.607 864.85 821.607 788.48C821.607 767.339 816.752 746.465 807.502 727.537L824.929 757.747L836.325 778.45H1132.33L683.927 1.37397L683.944 1.35698Z"></path><path d="M684.013 -37.998L683.194 -39.413L201.896 794.681L201.079 796.091H496.044L518.94 795.775L530.08 775.619C530.643 774.597 531.222 773.54 531.921 772.373L549.808 741.385C539.86 761.662 534.63 784.08 534.63 806.862C534.63 888.848 601.288 955.529 683.228 955.529C765.169 955.529 831.827 888.836 831.827 806.862C831.827 784.177 826.614 761.772 816.683 741.446L835.388 773.868L847.619 796.091H1165.35L684.047 -37.998H684.013Z"></path><path d="M684.065 -77.3533L683.196 -78.8535L169.003 812.248L168.133 813.755H483.27L507.732 813.415L519.623 791.885C520.236 790.779 520.85 789.672 521.582 788.408L540.678 755.305C530.049 776.968 524.461 800.917 524.461 825.28C524.461 912.846 595.669 984.098 683.213 984.098C770.758 984.098 841.966 912.846 841.966 825.28C841.966 801.039 836.395 777.09 825.799 755.39L845.78 790.025L858.847 813.767H1198.3L684.099 -77.3363L684.065 -77.3533Z"></path><path d="M684.116 -116.693L683.196 -118.295L136.107 829.826L135.188 831.431H470.476L496.49 831.054L509.146 808.15C509.793 806.971 510.441 805.792 511.224 804.442L531.548 769.236C520.236 792.273 514.291 817.754 514.291 843.661C514.291 936.844 590.064 1012.67 683.196 1012.67C776.328 1012.67 852.101 936.844 852.101 843.661C852.101 817.876 846.173 792.395 834.895 769.321L856.155 806.169L870.056 831.431H1231.2L684.099 -116.693H684.116Z"></path><path d="M684.185 -156.048L683.196 -157.753L103.195 847.368L102.207 849.07H457.666L485.246 848.681L498.652 824.392C499.334 823.14 500.032 821.9 500.868 820.465L522.417 783.119C510.424 807.542 504.121 834.579 504.121 862.042C504.121 960.829 584.443 1041.2 683.179 1041.2C781.916 1041.2 862.238 960.829 862.238 862.042C862.238 834.701 855.951 807.688 843.992 783.204L866.53 822.276L881.266 849.046H1264.14L684.134 -156.065L684.185 -156.048Z"></path><path d="M684.236 -195.386L683.196 -197.176L70.3002 864.96L69.2608 866.747H444.872L474.02 866.334L488.192 840.683C488.908 839.37 489.659 838.045 490.527 836.537L513.303 797.088C500.646 822.909 493.968 851.454 493.968 880.485C493.968 984.864 578.855 1069.79 683.179 1069.79C787.503 1069.79 872.39 984.864 872.39 880.485C872.39 851.587 865.746 823.043 853.106 797.185L876.921 838.47L892.509 866.759H1297.1L684.202 -195.369L684.236 -195.386Z"></path></g>
<g filter="url(#tail2)" fill="#000" stroke="#000" stroke-width="34" stroke-linejoin="round" opacity=".62"><path d="M683.571 276.798L683.196 276.15L465.076 654.147L464.701 654.795H598.377L608.752 654.642L613.794 645.506C614.05 645.045 614.305 644.569 614.629 644.023L622.738 629.978C618.224 639.165 615.855 649.324 615.855 659.653C615.855 696.805 646.059 727.027 683.196 727.027C720.332 727.027 750.537 696.805 750.537 659.653C750.537 649.376 748.169 639.216 743.672 630.012L752.155 644.705L757.691 654.778H901.674L683.554 276.781L683.571 276.798Z"></path><path d="M683.62 237.442L683.195 236.709L432.179 671.724L431.754 672.454H585.6L597.54 672.284L603.35 661.765C603.64 661.221 603.946 660.692 604.304 660.061L613.622 643.903C608.443 654.471 605.7 666.181 605.7 678.058C605.7 720.802 640.47 755.595 683.195 755.595C725.92 755.595 760.688 720.802 760.688 678.058C760.688 666.23 757.962 654.539 752.783 643.937L762.545 660.845L768.916 672.43H934.618L683.603 237.425L683.62 237.442Z"></path><path d="M683.672 198.103L683.196 197.268L399.286 689.292L398.808 690.131H572.807L586.316 689.936L592.875 678.059C593.215 677.451 593.555 676.831 593.965 676.138L604.51 657.847C598.649 669.816 595.549 683.043 595.549 696.464C595.549 744.825 634.866 784.165 683.196 784.165C731.525 784.165 770.86 744.825 770.86 696.464C770.86 683.092 767.776 669.865 761.933 657.881L772.971 677.001L780.195 690.106H967.618L683.706 198.086L683.672 198.103Z"></path><path d="M683.724 158.746L683.196 157.825L366.373 706.87L365.829 707.782H559.997L575.073 707.576L582.398 694.324C582.772 693.644 583.148 692.963 583.607 692.173L595.379 671.773C588.838 685.122 585.379 699.88 585.379 714.882C585.379 768.834 629.262 812.733 683.196 812.733C737.13 812.733 781.012 768.822 781.012 714.882C781.012 699.941 777.572 685.182 771.047 671.822L783.363 693.157L791.421 707.782H1000.56L683.741 158.746H683.724Z"></path><path d="M683.791 119.392L683.195 118.368L333.477 724.426L332.88 725.447H547.202L563.828 725.204L571.92 710.567C572.329 709.813 572.755 709.059 573.248 708.196L586.247 685.681C579.024 700.404 575.208 716.706 575.208 733.264C575.208 792.833 623.64 841.303 683.178 841.303C742.716 841.303 791.148 792.833 791.148 733.264C791.148 716.791 787.366 700.489 780.143 685.742L793.737 709.302L802.629 725.447H1033.49L683.774 119.392H683.791Z"></path><path d="M683.843 80.0513L683.196 78.9268L300.583 741.992L299.936 743.122H534.427L552.62 742.867L561.462 726.844C561.922 726.018 562.364 725.191 562.927 724.255L577.134 699.625C569.23 715.733 565.073 733.555 565.073 751.681C565.073 816.842 618.071 869.858 683.196 869.858C748.322 869.858 801.32 816.854 801.32 751.681C801.32 733.64 797.179 715.818 789.276 699.673L804.147 725.446L813.874 743.122H1066.44L683.826 80.0513H683.843Z"></path><path d="M683.894 40.696L683.196 39.4864L267.688 759.547L266.99 760.763H521.633L541.395 760.483L551.002 743.098C551.496 742.211 551.991 741.311 552.586 740.29L568.021 713.533C559.434 731.039 554.904 750.393 554.904 770.063C554.904 840.84 612.449 898.416 683.179 898.416C753.909 898.416 811.455 840.84 811.455 770.063C811.455 750.478 806.958 731.124 798.389 713.594L814.538 741.591L825.1 760.775H1099.39L683.877 40.713L683.894 40.696Z"></path><path d="M683.944 1.35698L683.178 0.044005L234.775 777.125L234.008 778.438H508.822L530.15 778.134L540.524 759.364C541.053 758.404 541.581 757.431 542.228 756.325L558.889 727.452C549.622 746.344 544.749 767.242 544.749 788.48C544.749 864.85 606.86 926.984 683.178 926.984C759.496 926.984 821.607 864.85 821.607 788.48C821.607 767.339 816.752 746.465 807.502 727.537L824.929 757.747L836.325 778.45H1132.33L683.927 1.37397L683.944 1.35698Z"></path><path d="M684.013 -37.998L683.194 -39.413L201.896 794.681L201.079 796.091H496.044L518.94 795.775L530.08 775.619C530.643 774.597 531.222 773.54 531.921 772.373L549.808 741.385C539.86 761.662 534.63 784.08 534.63 806.862C534.63 888.848 601.288 955.529 683.228 955.529C765.169 955.529 831.827 888.836 831.827 806.862C831.827 784.177 826.614 761.772 816.683 741.446L835.388 773.868L847.619 796.091H1165.35L684.047 -37.998H684.013Z"></path><path d="M684.065 -77.3533L683.196 -78.8535L169.003 812.248L168.133 813.755H483.27L507.732 813.415L519.623 791.885C520.236 790.779 520.85 789.672 521.582 788.408L540.678 755.305C530.049 776.968 524.461 800.917 524.461 825.28C524.461 912.846 595.669 984.098 683.213 984.098C770.758 984.098 841.966 912.846 841.966 825.28C841.966 801.039 836.395 777.09 825.799 755.39L845.78 790.025L858.847 813.767H1198.3L684.099 -77.3363L684.065 -77.3533Z"></path><path d="M684.116 -116.693L683.196 -118.295L136.107 829.826L135.188 831.431H470.476L496.49 831.054L509.146 808.15C509.793 806.971 510.441 805.792 511.224 804.442L531.548 769.236C520.236 792.273 514.291 817.754 514.291 843.661C514.291 936.844 590.064 1012.67 683.196 1012.67C776.328 1012.67 852.101 936.844 852.101 843.661C852.101 817.876 846.173 792.395 834.895 769.321L856.155 806.169L870.056 831.431H1231.2L684.099 -116.693H684.116Z"></path><path d="M684.185 -156.048L683.196 -157.753L103.195 847.368L102.207 849.07H457.666L485.246 848.681L498.652 824.392C499.334 823.14 500.032 821.9 500.868 820.465L522.417 783.119C510.424 807.542 504.121 834.579 504.121 862.042C504.121 960.829 584.443 1041.2 683.179 1041.2C781.916 1041.2 862.238 960.829 862.238 862.042C862.238 834.701 855.951 807.688 843.992 783.204L866.53 822.276L881.266 849.046H1264.14L684.134 -156.065L684.185 -156.048Z"></path><path d="M684.236 -195.386L683.196 -197.176L70.3002 864.96L69.2608 866.747H444.872L474.02 866.334L488.192 840.683C488.908 839.37 489.659 838.045 490.527 836.537L513.303 797.088C500.646 822.909 493.968 851.454 493.968 880.485C493.968 984.864 578.855 1069.79 683.179 1069.79C787.503 1069.79 872.39 984.864 872.39 880.485C872.39 851.587 865.746 823.043 853.106 797.185L876.921 838.47L892.509 866.759H1297.1L684.202 -195.369L684.236 -195.386Z"></path></g>
</mask>
</defs>
<rect x="-900" y="-900" width="3200" height="2900" fill="#0A0712" mask="url(#outside)"></rect>
</svg>